<svg width="841" height="181" viewBox="0 0 841 181" fill="none" xmlns="http://www.w3.org/2000/svg">
<circle cx="80" cy="79.2696" r="64.5" fill="url(#paint0_linear_25_2)" stroke="black"/>
<circle cx="80" cy="79.2696" r="59.5" fill="url(#paint1_linear_25_2)" stroke="black"/>
<path d="M83.8277 72.043V149.957L18.5533 111L83.8277 72.043Z" fill="url(#paint2_linear_25_2)" stroke="black"/>
<path d="M83.8277 40.043V117.957L18.5533 79L83.8277 40.043Z" fill="url(#paint3_linear_25_2)" stroke="black"/>
<path d="M83.8277 9.04297V86.957L18.5533 48L83.8277 9.04297Z" fill="url(#paint4_linear_25_2)" stroke="black"/>
<path d="M122.25 72.3126L122.25 150.227L56.9756 111.27L122.25 72.3126Z" fill="url(#paint5_linear_25_2)" stroke="black"/>
<path d="M122.25 40.3126L122.25 118.227L56.9756 79.2696L122.25 40.3126Z" fill="url(#paint6_linear_25_2)" stroke="black"/>
<path d="M122.25 9.31257L122.25 87.2266L56.9756 48.2696L122.25 9.31257Z" fill="url(#paint7_linear_25_2)" stroke="black"/>
<path d="M173.559 32.2109V116H162.719V32.2109H173.559ZM194.125 116V54.4766H201.449L203.383 62.3281C209.672 57.0938 216.586 54.4766 224.125 54.4766C239.477 54.4766 247.152 62.1133 247.152 77.3867V116H236.312V77.2109C236.312 68.0703 231.762 63.5 222.66 63.5C216.449 63.5 210.551 66.0977 204.965 71.293V116H194.125ZM264.203 113.07V103.695C271.43 106.039 278.734 107.211 286.117 107.211C295.922 107.211 300.824 104.281 300.824 98.4219C300.824 92.9531 297.406 90.2188 290.57 90.2188H281.781C268.5 90.2188 261.859 84.1641 261.859 72.0547C261.859 60.3359 270.395 54.4766 287.465 54.4766C294.809 54.4766 302.094 55.4531 309.32 57.4062V66.7812C302.094 64.4375 294.809 63.2656 287.465 63.2656C277.23 63.2656 272.113 66.1953 272.113 72.0547C272.113 77.5234 275.336 80.2578 281.781 80.2578H290.57C304.633 80.2578 311.664 86.3125 311.664 98.4219C311.664 110.141 303.148 116 286.117 116C278.734 116 271.43 115.023 264.203 113.07ZM334.223 85.0039C334.223 99.8086 340.375 107.211 352.68 107.211C364.984 107.211 371.137 99.8086 371.137 85.0039C371.137 70.5117 364.984 63.2656 352.68 63.2656C340.375 63.2656 334.223 70.5117 334.223 85.0039ZM323.383 85.2383C323.383 64.7305 333.148 54.4766 352.68 54.4766C372.211 54.4766 381.977 64.7305 381.977 85.2383C381.977 105.707 372.211 115.941 352.68 115.941C333.227 115.941 323.461 105.707 323.383 85.2383ZM408.051 32.2109V116H397.211V32.2109H408.051ZM451.645 54.4766C469.145 54.4766 477.895 63.1289 477.895 80.4336C477.895 82.8945 477.719 85.5312 477.367 88.3438H434.184C434.184 100.922 441.527 107.211 456.215 107.211C463.207 107.211 469.418 106.43 474.848 104.867V113.656C469.418 115.219 462.816 116 455.043 116C433.91 116 423.344 105.512 423.344 84.5352C423.344 64.4961 432.777 54.4766 451.645 54.4766ZM434.184 79.3203H467.465C467.23 68.5391 461.957 63.1484 451.645 63.1484C440.707 63.1484 434.887 68.5391 434.184 79.3203ZM492.484 116V54.4766H499.809L501.742 62.3281C508.031 57.0938 514.945 54.4766 522.484 54.4766C537.836 54.4766 545.512 62.1133 545.512 77.3867V116H534.672V77.2109C534.672 68.0703 530.121 63.5 521.02 63.5C514.809 63.5 508.91 66.0977 503.324 71.293V116H492.484ZM563.148 44.5156H569.945L572.289 54.4766H588.93V63.2656H573.988V98.5977C573.988 104.34 576.469 107.211 581.43 107.211H588.93V116H578.617C568.305 116 563.148 110.473 563.148 99.418V44.5156ZM635.98 116H624.73L660.297 32.2109H672.309L708.051 116H696.039L685.199 89.6328H657.484L660.473 80.8438H681.566L665.922 42.875L635.98 116ZM718.305 116V54.4766H725.629L727.562 62.3281C732.953 57.0938 739.438 54.4766 747.016 54.4766V63.5C739.672 63.5 733.715 66.0977 729.145 71.293V116H718.305ZM757.914 44.5156H764.711L767.055 54.4766H783.695V63.2656H768.754V98.5977C768.754 104.34 771.234 107.211 776.195 107.211H783.695V116H773.383C763.07 116 757.914 110.473 757.914 99.418V44.5156Z" fill="#CDCDCD"/>
<defs>
<linearGradient id="paint0_linear_25_2" x1="80" y1="14.2696" x2="80" y2="144.27" gradientUnits="userSpaceOnUse">
<stop stop-color="#B0B0B0"/>
<stop offset="1" stop-color="#4A4A4A"/>
</linearGradient>
<linearGradient id="paint1_linear_25_2" x1="80" y1="19.2696" x2="80" y2="139.27" gradientUnits="userSpaceOnUse">
<stop stop-color="#FF5858"/>
<stop offset="1" stop-color="#993535"/>
</linearGradient>
<linearGradient id="paint2_linear_25_2" x1="17.5777" y1="111" x2="106.578" y2="111" gradientUnits="userSpaceOnUse">
<stop stop-color="#77FF6D"/>
<stop offset="1" stop-color="#479941"/>
</linearGradient>
<linearGradient id="paint3_linear_25_2" x1="17.5777" y1="79" x2="106.578" y2="79" gradientUnits="userSpaceOnUse">
<stop stop-color="#FFF36D"/>
<stop offset="1" stop-color="#999241"/>
</linearGradient>
<linearGradient id="paint4_linear_25_2" x1="17.5777" y1="48" x2="106.578" y2="48" gradientUnits="userSpaceOnUse">
<stop stop-color="#FF6DEE"/>
<stop offset="1" stop-color="#99418F"/>
</linearGradient>
<linearGradient id="paint5_linear_25_2" x1="56" y1="111.27" x2="145" y2="111.27" gradientUnits="userSpaceOnUse">
<stop stop-color="#77FF6D"/>
<stop offset="1" stop-color="#479941"/>
</linearGradient>
<linearGradient id="paint6_linear_25_2" x1="56" y1="79.2696" x2="145" y2="79.2696" gradientUnits="userSpaceOnUse">
<stop stop-color="#FFF36D"/>
<stop offset="1" stop-color="#999241"/>
</linearGradient>
<linearGradient id="paint7_linear_25_2" x1="56" y1="48.2696" x2="145" y2="48.2696" gradientUnits="userSpaceOnUse">
<stop stop-color="#FF6DEE"/>
<stop offset="1" stop-color="#99418F"/>
</linearGradient>
</defs>
</svg>
